# xmcd
#
# Track frame offsets: 
#        150
#        28033
#        48378
#        78744
#        102136
#        123169
#        139609
#        167821
#        189579
#        209839
#        225774
#        245209
#        268031
#        284925
#        307962
#
# Disc length: 4663 seconds
#
# Revision: 9
# Processed by: cddbd v1.5.2PL0 Copyright (c) Steve Scherf et al.
# Submitted via: ExactAudioCopyFreeDBPlugin 1.0
#
DISCID=dc12350f
DTITLE=Stevie Wonder - A Time To Love
DYEAR=2005
DGENRE=R&B
TTITLE0=If Your Love Cannot Be Moved (Feat. Kim Burrell)
TTITLE1=Sweetest Somebody I Know
TTITLE2=Moon Blue
TTITLE3=From The Bottom Of My Heart
TTITLE4=Please Don't Hurt My Baby
TTITLE5=How Will I Know (Feat. Aisha Morris)
TTITLE6=My Love Is On Fire
TTITLE7=Passionate Raindrops
TTITLE8=Tell Your Heart I Love You
TTITLE9=True Love
TTITLE10=Shelter In The Rain
TTITLE11=So What The Fuss
TTITLE12=Can't Imagine Love Without You
TTITLE13=Positivity (Feat. Aisha Morris)
TTITLE14=A Time To Love (Feat. India.Arie)
EXTD=YEAR: 2005
EXTT0=
EXTT1=
EXTT2=
EXTT3=
EXTT4=
EXTT5=
EXTT6=
EXTT7=
EXTT8=
EXTT9=
EXTT10=
EXTT11=
EXTT12=
EXTT13=
EXTT14=
PLAYORDER=
